<svg id="visual" viewBox="0 0 540 960" width="540" height="960" xmlns="http://www.w3.org/2000/svg" xmlns:xlink="http://www.w3.org/1999/xlink" version="1.1"><rect x="0" y="0" width="540" height="960" fill="#140021"></rect><path d="M253 0L217 0L217 137L264 137L264 274L269 274L269 411L305 411L305 549L197 549L197 686L250 686L250 823L236 823L236 960L0 960L0 823L0 823L0 686L0 686L0 549L0 549L0 411L0 411L0 274L0 274L0 137L0 137L0 0L0 0Z" fill="#9900ff"></path><path d="M168 0L158 0L158 137L154 137L154 274L153 274L153 411L209 411L209 549L207 549L207 686L217 686L217 823L136 823L136 960L0 960L0 823L0 823L0 686L0 686L0 549L0 549L0 411L0 411L0 274L0 274L0 137L0 137L0 0L0 0Z" fill="#7700c6"></path><path d="M74 0L59 0L59 137L140 137L140 274L98 274L98 411L120 411L120 549L79 549L79 686L67 686L67 823L52 823L52 960L0 960L0 823L0 823L0 686L0 686L0 549L0 549L0 411L0 411L0 274L0 274L0 137L0 137L0 0L0 0Z" fill="#560090"></path></svg>