<svg id="visual" viewBox="0 0 540 960" width="540" height="960" xmlns="http://www.w3.org/2000/svg" xmlns:xlink="http://www.w3.org/1999/xlink" version="1.1"><rect x="0" y="0" width="540" height="960" fill="#140021"></rect><path d="M233 0L279 0L279 137L313 137L313 274L195 274L195 411L280 411L280 549L267 549L267 686L264 686L264 823L310 823L310 960L0 960L0 823L0 823L0 686L0 686L0 549L0 549L0 411L0 411L0 274L0 274L0 137L0 137L0 0L0 0Z" fill="#9900ff"></path><path d="M213 0L210 0L210 137L140 137L140 274L230 274L230 411L161 411L161 549L172 549L172 686L132 686L132 823L216 823L216 960L0 960L0 823L0 823L0 686L0 686L0 549L0 549L0 411L0 411L0 274L0 274L0 137L0 137L0 0L0 0Z" fill="#7700c6"></path><path d="M141 0L96 0L96 137L75 137L75 274L106 274L106 411L69 411L69 549L51 549L51 686L48 686L48 823L62 823L62 960L0 960L0 823L0 823L0 686L0 686L0 549L0 549L0 411L0 411L0 274L0 274L0 137L0 137L0 0L0 0Z" fill="#560090"></path></svg>