<svg id="visual" viewBox="0 0 1920 400" width="1920" height="400" xmlns="http://www.w3.org/2000/svg" xmlns:xlink="http://www.w3.org/1999/xlink" 
version="1.1">
<path d="M0 259L45.7 268.8C91.3 278.7 182.7 298.3 274.2 309.3C365.7 320.3 457.3 322.7 548.8 316.8C640.3 311 731.7 297 823 299.2C914.3 301.3 1005.7 319.7 1097 323C1188.3 326.3 1279.7 314.7 1371.2 300.5C1462.7 286.3 1554.3 269.7 1645.8 269.3C1737.3 269 1828.7 285 1874.3 293L1920 301L1920 401L1874.3 401C1828.7 401 1737.3 401 1645.8 401C1554.3 401 1462.7 401 1371.2 401C1279.7 401 1188.3 401 1097 401C1005.7 401 914.3 401 823 401C731.7 401 640.3 401 548.8 401C457.3 401 365.7 401 274.2 401C182.7 401 91.3 401 45.7 401L0 401Z" fill="#0066FF" stroke-linecap="round" stroke-linejoin="miter"></path></svg>