<svg id="visual" viewBox="0 0 1920 400" width="1920" height="400" xmlns="http://www.w3.org/2000/svg" xmlns:xlink="http://www.w3.org/1999/xlink" version="1.1"><path d="M0 333L45.7 328.3C91.3 323.7 182.7 314.3 274.2 301C365.7 287.7 457.3 270.3 548.8 277.2C640.3 284 731.7 315 823 316.7C914.3 318.3 1005.7 290.7 1097 277.5C1188.3 264.3 1279.7 265.7 1371.2 274C1462.7 282.3 1554.3 297.7 1645.8 298.8C1737.3 300 1828.7 287 1874.3 280.5L1920 274L1920 401L1874.3 401C1828.7 401 1737.3 401 1645.8 401C1554.3 401 1462.7 401 1371.2 401C1279.7 401 1188.3 401 1097 401C1005.7 401 914.3 401 823 401C731.7 401 640.3 401 548.8 401C457.3 401 365.7 401 274.2 401C182.7 401 91.3 401 45.7 401L0 401Z" fill="#0066FF" stroke-linecap="round" stroke-linejoin="miter"></path></svg>