<svg id="visual" viewBox="0 0 1920 400" width="1920" height="400" xmlns="http://www.w3.org/2000/svg" xmlns:xlink="http://www.w3.org/1999/xlink" version="1.1"><path d="M0 254L45.7 267C91.3 280 182.7 306 274.2 313.2C365.7 320.3 457.3 308.7 548.8 308.3C640.3 308 731.7 319 823 311.8C914.3 304.7 1005.7 279.3 1097 267.7C1188.3 256 1279.7 258 1371.2 259.8C1462.7 261.7 1554.3 263.3 1645.8 269C1737.3 274.7 1828.7 284.3 1874.3 289.2L1920 294L1920 401L1874.3 401C1828.7 401 1737.3 401 1645.8 401C1554.3 401 1462.7 401 1371.2 401C1279.7 401 1188.3 401 1097 401C1005.7 401 914.3 401 823 401C731.7 401 640.3 401 548.8 401C457.3 401 365.7 401 274.2 401C182.7 401 91.3 401 45.7 401L0 401Z" fill="#0066FF" stroke-linecap="round" stroke-linejoin="miter"></path></svg>