<svg id="visual" viewBox="0 0 900 100" width="900" height="100" xmlns="http://www.w3.org/2000/svg" xmlns:xlink="http://www.w3.org/1999/xlink" version="1.1"><path d="M0 77L21.5 76C43 75 86 73 128.8 74C171.7 75 214.3 79 257.2 80.3C300 81.7 343 80.3 385.8 80C428.7 79.7 471.3 80.3 514.2 79.7C557 79 600 77 642.8 77.3C685.7 77.7 728.3 80.3 771.2 79.3C814 78.3 857 73.7 878.5 71.3L900 69L900 101L878.5 101C857 101 814 101 771.2 101C728.3 101 685.7 101 642.8 101C600 101 557 101 514.2 101C471.3 101 428.7 101 385.8 101C343 101 300 101 257.2 101C214.3 101 171.7 101 128.8 101C86 101 43 101 21.5 101L0 101Z" fill="#0a2342" stroke-linecap="round" stroke-linejoin="miter"></path></svg>