<svg id="visual" viewBox="0 0 1920 400" width="1920" height="400" xmlns="http://www.w3.org/2000/svg" xmlns:xlink="http://www.w3.org/1999/xlink" version="1.1"><path d="M0 336L45.7 333C91.3 330 182.7 324 274.2 309.8C365.7 295.7 457.3 273.3 548.8 270.3C640.3 267.3 731.7 283.7 823 289.5C914.3 295.3 1005.7 290.7 1097 294C1188.3 297.3 1279.7 308.7 1371.2 315.5C1462.7 322.3 1554.3 324.7 1645.8 317.7C1737.3 310.7 1828.7 294.3 1874.3 286.2L1920 278L1920 401L1874.3 401C1828.7 401 1737.3 401 1645.8 401C1554.3 401 1462.7 401 1371.2 401C1279.7 401 1188.3 401 1097 401C1005.7 401 914.3 401 823 401C731.7 401 640.3 401 548.8 401C457.3 401 365.7 401 274.2 401C182.7 401 91.3 401 45.7 401L0 401Z" fill="#0066FF" stroke-linecap="round" stroke-linejoin="miter"></path></svg>