<svg width="150" height="150" viewBox="0 0 150 150" fill="none" xmlns="http://www.w3.org/2000/svg">
<path d="M13.6381 136.181L13.6416 136.184C21.8833 143.942 32.8007 148.5 45.9269 148.5C59.6899 148.5 70.7177 143.566 79.4249 135.072C88.1502 126.56 92.5 115.439 92.5 101.757V2V1.5H92H70.8512H70.3512V2V101.757C70.3512 110.666 68.0251 117.456 63.4419 122.201L63.4414 122.202C58.9955 126.819 53.4872 129.127 46.8825 129.127C39.0472 129.127 33.2416 127.192 29.3731 123.408C25.5058 119.625 23.4914 113.912 23.4138 106.175L23.4089 105.68H22.9138H2H1.5V106.18C1.5 118.394 5.54074 128.409 13.6381 136.181Z" fill="#004F98" stroke="black"/>
<path d="M118.308 25.2079L118.314 25.2117L118.321 25.2154C124.25 28.6433 127.253 34.5715 127.253 43.1413C127.253 51.5654 124.327 57.4219 118.551 60.8489C112.706 64.3171 103.323 66.0874 90.3193 66.0874H68.2179V19.7528H90.3193C103.163 19.7528 112.465 21.5961 118.308 25.2079ZM111.344 83.0079L111.344 83.0081L111.356 83.0061C117.521 81.9666 123.604 80.1106 129.604 77.4401C135.665 74.7431 140.299 70.5411 143.491 64.8427C146.84 58.9977 148.5 51.7552 148.5 43.1413C148.5 36.1589 147.315 30.1136 144.925 25.0206C142.704 19.8073 139.758 15.7555 136.073 12.8929C132.562 9.89656 128.11 7.51168 122.731 5.72802C117.363 3.94805 112.069 2.83367 106.85 2.38725C101.806 1.79524 96.0593 1.5 89.6131 1.5H47H46.4961L46.5 2.00387L47.6301 148.004L47.6339 148.5H48.1301C54.8095 148.5 61.3901 146.886 67.3115 143.795L67.4471 143.725L67.7131 143.586L67.7157 143.286L68.2137 84.3402H89.6131C97.948 84.3402 105.193 83.8971 111.344 83.0079Z" fill="#D64045" stroke="black"/>
<rect x="70.85" y="2" width="21.15" height="20" fill="#004F98"/>
<rect x="69.85" y="1" width="1" height="20" fill="black"/>
<rect x="92" y="1" width="1" height="20" fill="black"/>
</svg>
